<svg xmlns="http://www.w3.org/2000/svg" width="512" height="512" viewBox="0 0 512 512" role="img" aria-label="Estimation Whist Scorer">
  <defs>
    <g id="club">
      <circle cx="0" cy="-12" r="10" />
      <circle cx="-10" cy="0" r="10" />
      <circle cx="10" cy="0" r="10" />
      <rect x="-3.5" y="8" width="7" height="16" rx="2.5" />
      <path d="M-12 22 C-7 16 7 16 12 22 C5 24 -5 24 -12 22 Z" />
    </g>
    <g id="spade">
      <path d="M0 -24 C-18 -10 -20 4 -11 12 C-6 17 1 15 0 14 C-1 15 6 17 11 12 C20 4 18 -10 0 -24 Z" />
      <rect x="-3.5" y="12" width="7" height="14" rx="2.5" />
      <path d="M-11 24 C-6 19 6 19 11 24 C4 26 -4 26 -11 24 Z" />
    </g>
    <g id="heart">
      <path d="M0 20 C-6 12 -20 4 -20 -8 C-20 -16 -14 -22 -7 -22 C-3 -22 1 -20 0 -16 C-1 -20 3 -22 7 -22 C14 -22 20 -16 20 -8 C20 4 6 12 0 20 Z" />
    </g>
    <g id="diamond">
      <path d="M0 -22 L14 0 L0 22 L-14 0 Z" />
    </g>
  </defs>

  <rect width="512" height="512" rx="110" fill="#2b6d5f" />
  <rect x="76" y="76" width="360" height="360" rx="82" fill="#255d52" />

  <g transform="translate(256 252)">
    <g transform="translate(-88 -88) scale(1.75)" fill="#fff5e4">
      <use href="#club" />
    </g>
    <g transform="translate(88 -88) scale(1.75)" fill="#fff5e4">
      <use href="#spade" />
    </g>
    <g transform="translate(-88 78) scale(1.75)" fill="#f3b3a9">
      <use href="#heart" />
    </g>
    <g transform="translate(88 78) scale(1.75)" fill="#f3b3a9">
      <use href="#diamond" />
    </g>
  </g>
</svg>
